<?xml version="1.0" encoding="utf-8" standalone="yes"?>
<!DOCTYPE svg PUBLIC "-//W3C//DTD SVG 1.1//EN" "http://www.w3.org/Graphics/SVG/1.1/DTD/svg11.dtd">
<svg xmlns:svg="http://www.w3.org/2000/svg" xmlns="http://www.w3.org/2000/svg" width="288" height="288" version="1.1">
<style type="text/css">
.OO {fill:#000}
.FF {fill:#fff}
.GB {fill:#096}
</style>
  <g transform="translate(0,-764.36194)">
    <g class="FF" transform="matrix(2,0,0,2.0000417,-475.054,107.38824)">
      <path d="M381.527,472.477L 237.527,472.477L 237.527,328.48L 381.527,328.48L 381.527,472.477z"/>
    </g>
    <g class="OO" transform="matrix(2,0,0,2.0000417,-475.054,107.38824)">
      <path d="M240.168,426.879L 240.168,469.816L 378.883,469.816L 378.883,448.387C 363.488,453.207 343.148,456.738 324.176,456.738C 280.129,456.738 243.738,443.043 240.168,426.879z" class="OO"/>
    </g>
    <g class="OO" transform="matrix(2,0,0,2.0000417,-475.054,107.38824)">
      <path d="M259.762,404.066C 261.465,400.852 264.344,397.406 268.75,393.168L 286.426,376.039C 268.246,376.285 251.973,379.086 240.168,382.832L 240.168,421.602C 241.684,414.941 248.801,408.883 259.762,404.066z" class="OO"/>
    </g>
    <g class="OO" transform="matrix(2,0,0,2.0000417,-475.054,107.38824)">
      <path d="M322.035,428.086L 325.086,412.988L 306.223,428.086L 322.035,428.086z" class="OO"/>
    </g>
    <g class="OO" transform="matrix(2,0,0,2.0000417,-475.054,107.38824)">
      <path d="M282.969,418.305C 289.418,418.305 295.035,413.965 295.035,409.016C 295.035,405.816 291.926,403.68 287.27,403.68C 280.461,403.68 274.727,407.715 274.727,412.594C 274.727,415.945 278.07,418.305 282.969,418.305z" class="OO"/>
    </g>
    <g class="OO" transform="matrix(2,0,0,2.0000417,-475.054,107.38824)">
      <path d="M339.688,421.371L 338.105,428.129L 346.945,428.129L 345.395,437.145L 336.551,437.145L 333.926,449.102L 317.082,449.102L 319.711,437.145L 289.598,437.035L 291.875,428.457L 294.512,426.355C 290.891,427.402 286.871,427.98 282.605,427.98C 268.914,427.98 259.453,422.535 257.973,414.109C 256.266,416.719 255.352,419.465 255.352,422.297C 255.352,439.621 289.383,453.672 331.363,453.672C 347.344,453.672 364.273,450.898 378.883,446.965L 378.883,400.125C 376.555,407.844 361.535,417.18 339.688,421.371z" class="OO"/>
    </g>
    <g class="OO" transform="matrix(2,0,0,2.0000417,-475.054,107.38824)">
      <path d="M293.719,394.844C 304.473,394.844 312,400.332 312,408.254C 312,409.934 311.695,411.555 311.141,413.102L 332.012,396.461L 345.516,396.461L 340.074,419.73C 354.063,414.418 362.219,405.258 362.559,398.848C 363.141,387.762 339.238,378.66 304.969,376.5L 285.598,395.605L 285.836,395.758C 288.227,395.148 290.852,394.844 293.719,394.844z" class="OO"/>
    </g>
    <g class="OO" transform="matrix(2,0,0,2.0000417,-475.054,107.38824)">
      <path d="M240.168,381.461L 240.168,331.145L 378.883,331.145L 378.883,396.039C 375.391,384.777 343.367,374.645 302.129,373.848C 277.754,373.379 255.113,376.93 240.168,381.461 z M276.258,365.141L 264.738,339.223L 257.258,339.223L 246.801,365.141L 253.648,365.141L 255.582,360.004L 267.168,360.004L 269.301,365.141L 276.258,365.141 z M265.27,355.484L 257.293,355.484L 261.098,345.414L 265.27,355.484 z M307.156,365.141L 307.156,339.223L 301.527,339.223L 293.203,348.832L 284.867,339.223L 279.258,339.223L 279.258,365.141L 285.719,365.141L 285.719,348.945L 292.707,357.086L 293.699,357.086L 300.68,348.945L 300.68,365.141L 307.156,365.141 z M338.609,352.219C 338.609,345.113 333.75,339.223 324.281,339.223L 312.848,339.223L 312.848,365.141L 323.563,365.141C 333.902,365.141 338.609,359.664 338.609,352.219 z M331.957,352.18C 331.957,355.98 330.023,360.383 323.531,360.383L 319.316,360.383L 319.316,343.977L 323.449,343.977C 329.57,343.977 331.957,347.734 331.957,352.18z" class="OO"/>
    </g>
    <g class="GB" transform="matrix(2,0,0,2.0000417,-475.054,107.38824)">
      <path d="M371.516,339.137L 344.699,339.137L 352.141,346.59L 364.059,346.59L 364.059,358.504L 371.516,365.957L 371.516,339.137z" class="GB"/>
    </g>
    <g class="GB" transform="matrix(2,0,0,2.0000417,-475.054,107.38824)">
      <path d="M352.141,358.504L 352.141,347.781L 344.699,355.23L 344.699,365.957L 355.418,365.957L 362.867,358.504L 352.141,358.504z" class="GB"/>
    </g>
    <g class="FF" transform="matrix(2,0,0,2.0000417,-475.054,107.38824)">
      <path d="M367.141,438.461L 367.141,442.957L 366.766,442.957L 366.766,438.461L 364.965,438.461L 364.965,438.152L 368.945,438.152L 368.945,438.461L 367.141,438.461z"/>
    </g>
    <g class="FF" transform="matrix(2,0,0,2.0000417,-475.054,107.38824)">
      <path d="M373.773,442.957L 373.773,438.695L 373.758,438.695L 371.941,440.941L 370.121,438.695L 370.105,438.695L 370.105,442.957L 369.734,442.957L 369.734,438.152L 370.105,438.152L 371.941,440.387L 373.773,438.152L 374.145,438.152L 374.145,442.957L 373.773,442.957z"/>
    </g>
  </g>
</svg>
