<svg id="Layer_1" data-name="Layer 1" xmlns="http://www.w3.org/2000/svg" viewBox="0 0 374.42 54.29"><defs><style>.cls-1{fill:#006cb5;fill-rule:evenodd;}</style></defs><title>MIPS_master_logo</title><path class="cls-1" d="M129.33,5.85V48.43a5.74,5.74,0,0,0,5.85,5.85A5.91,5.91,0,0,0,141,48.43V5.85A5.91,5.91,0,0,0,135.19,0a5.74,5.74,0,0,0-5.85,5.85Z"/><path class="cls-1" d="M112.83,2.13a6.25,6.25,0,0,0-6.12.27L58,35.39l-48.7-33a6.28,6.28,0,0,0-6.12-.27A6.39,6.39,0,0,0,0,7.45v41a5.91,5.91,0,0,0,5.86,5.85A6,6,0,0,0,12,48.43V18.36l42.58,29a6,6,0,0,0,6.65,0l42.84-29V48.43a5.91,5.91,0,0,0,5.85,5.85A6,6,0,0,0,116,48.43v-41a6.39,6.39,0,0,0-3.19-5.32Z"/><path class="cls-1" d="M254.94,6.92a19.43,19.43,0,0,0-13.31-5.59H160.2a6.28,6.28,0,0,0-4.26,1.86,6,6,0,0,0-1.6,4.26v41a5.85,5.85,0,0,0,11.71,0V13.31h75.58a6.41,6.41,0,0,1,4.79,1.86A6.67,6.67,0,0,1,248.55,20a6.82,6.82,0,0,1-6.92,6.65H179.36a5.91,5.91,0,0,0-5.85,5.85,6,6,0,0,0,5.85,6.12h62.27A19.43,19.43,0,0,0,254.94,33a18.08,18.08,0,0,0,5.32-13,18.08,18.08,0,0,0-5.32-13Z"/><path class="cls-1" d="M365.37,1.6H283.94A15.45,15.45,0,0,0,268.51,17,15.69,15.69,0,0,0,273,28.21a15.53,15.53,0,0,0,10.91,4.52h74a5.6,5.6,0,0,1,3.46,1.33,4.91,4.91,0,0,1,1.33,3.19A4.77,4.77,0,0,1,357.92,42H275.69a5.85,5.85,0,0,0,0,11.71h82.23A16.07,16.07,0,0,0,369.63,49a15.65,15.65,0,0,0,4.79-11.71,15.47,15.47,0,0,0-4.79-11.44A16.07,16.07,0,0,0,357.92,21h-74a3.7,3.7,0,0,1-2.66-1.33A3.08,3.08,0,0,1,280.22,17a3.81,3.81,0,0,1,1.06-2.66,4.73,4.73,0,0,1,2.66-1.06h81.43a5.91,5.91,0,0,0,5.85-5.85,5.91,5.91,0,0,0-5.85-5.85Z"/></svg>